#!OML:ASF F:\VICON\USERDATA\INSTALL\rory3\rory3.ASF
:FULLY-SPECIFIED
:DEGREES
886
root -2.57105 17.7766 -3.79453 -175.378 139.165 -180.93
lowerback 6.28055 -1.82171 -9.877
upperback 1.86135 -3.0179 -1.02087
thorax -1.12294 -1.50002 4.67459
lowerneck -20.9778 -11.5621 -15.9021
upperneck 14.5317 -13.8327 13.308
head 10.1531 -6.00756 5.01096
rclavicle -8.3092e-014 0
rhumerus -45.054 -24.2617 -68.5204
rradius 29.2716
rwrist 21.8584
rhand -26.6664 -0.610548
rfingers 7.12502
rthumb -0.097878 -30.5903
lclavicle -8.3092e-014 0
lhumerus -67.1726 33.5751 33.9374
lradius 18.3459
lwrist -13.8888
lhand -12.3493 35.8825
lfingers 7.12502
lthumb 13.7204 1145.41
rfemur -26.9224 -6.89124 15.534
rtibia 39.275
rfoot -19.14 -19.3432
rtoes 17.7269
lfemur -6.81456 3.00306 -21.5866
ltibia 23.8364
lfoot -17.7704 8.44844
ltoes -10.5423
887
root -2.59692 17.7801 -3.78521 -175.385 139.461 -180.945
lowerback 6.14962 -1.77727 -9.82955
upperback 1.81432 -2.94497 -1.04489
thorax -1.11421 -1.46281 4.6147
lowerneck -20.9995 -11.5759 -15.8399
upperneck 14.7042 -13.8713 13.2374
head 10.2132 -6.02656 4.96896
rclavicle -3.18055e-014 0
rhumerus -44.9226 -24.4008 -67.8895
rradius 29.644
rwrist 21.6466
rhand -26.7908 -0.612881
rfingers 7.12502
rthumb -0.218049 -30.5925
lclavicle -3.18055e-014 0
lhumerus -67.141 33.8919 33.6449
lradius 18.0755
lwrist -14.5743
lhand -12.3739 35.9543
lfingers 7.12502
lthumb 13.6967 1145.48
rfemur -26.6044 -6.74294 15.1639
rtibia 39.298
rfoot -19.2528 -19.3869
rtoes 17.597
lfemur -6.75135 3.01486 -21.5062
ltibia 23.6991
lfoot -17.6964 8.6595
ltoes -10.3465
888
root -2.62322 17.7811 -3.77441 -175.469 139.732 -181.049
lowerback 6.13835 -1.74445 -9.67102
upperback 1.70713 -2.89939 -1.04923
thorax -1.23601 -1.43138 4.52216
lowerneck -20.9244 -11.5666 -15.9068
upperneck 14.7734 -13.8647 13.2658
head 10.2314 -6.02713 4.99395
rclavicle 5.18828e-014 4.77083e-015
rhumerus -44.7793 -24.6591 -67.084
rradius 29.8591
rwrist 21.8177
rhand -27.0261 -0.728504
rfingers 7.12502
rthumb -0.445301 -30.7078
lclavicle 5.18828e-014 4.77083e-015
lhumerus -67.1423 34.2365 33.3375
lradius 17.8675
lwrist -15.2982
lhand -12.7294 36.1473
lfingers 7.12502
lthumb 13.354 1145.7
rfemur -26.2412 -6.66635 14.895
rtibia 39.2475
rfoot -19.4362 -19.4355
rtoes 17.6204
lfemur -6.68814 2.98637 -21.3486
ltibia 23.6029
lfoot -17.6207 8.89078
ltoes -10.3332
889
root -2.64656 17.7818 -3.76303 -175.444 139.961 -180.969
lowerback 6.0511 -1.74573 -9.65389
upperback 1.65317 -2.89443 -1.06254
thorax -1.24618 -1.42695 4.49612
lowerneck -20.962 -11.606 -15.928
upperneck 14.8726 -13.8941 13.1616
head 10.2697 -6.04992 4.95303
rclavicle -4.49253e-014 0
rhumerus -44.524 -24.9501 -66.2353
rradius 30.0194
rwrist 21.6138
rhand -27.5567 -0.344886
rfingers 7.12502
rthumb -0.957786 -30.3225
lclavicle -4.49253e-014 0
lhumerus -67.3831 34.9802 32.4774
lradius 17.4685
lwrist -16.9602
lhand -12.8545 35.932
lfingers 7.12502
lthumb 13.2335 1145.49
rfemur -25.8129 -6.65264 14.4603
rtibia 39.1107
rfoot -19.3014 -19.4316
rtoes 17.1912
lfemur -6.62401 3.02003 -21.3415
ltibia 23.5688
lfoot -17.6207 9.02165
ltoes -10.3084
890
root -2.66973 17.7837 -3.74985 -175.389 140.26 -180.828
lowerback 5.89889 -1.7399 -9.68816
upperback 1.64631 -2.87215 -1.09838
thorax -1.17168 -1.41911 4.47013
lowerneck -21.1341 -11.6435 -15.9178
upperneck 15.0046 -13.9176 13.0803
head 10.3422 -6.05978 4.91279
rclavicle 6.71892e-014 1.59028e-014
rhumerus -44.1361 -25.1215 -65.514
rradius 30.3064
rwrist 21.2173
rhand -28.0239 0.21118
rfingers 7.12502
rthumb -1.40904 -29.7639
lclavicle 6.71892e-014 1.59028e-014
lhumerus -67.4502 35.6385 31.8867
lradius 17.1371
lwrist -18.6373
lhand -12.694 35.7063
lfingers 7.12502
lthumb 13.3881 1145.26
rfemur -25.3702 -6.56393 13.9634
rtibia 38.8806
rfoot -19.1802 -19.2258
rtoes 16.8969
lfemur -6.56214 2.99461 -21.4024
ltibia 23.5728
lfoot -17.6113 9.32816
ltoes -10.4444
891
root -2.69825 17.7841 -3.73843 -175.501 140.527 -180.954
lowerback 5.83118 -1.75245 -9.51708
upperback 1.62409 -2.8734 -1.09606
thorax -1.16585 -1.41974 4.37529
lowerneck -21.158 -11.628 -15.9322
upperneck 14.958 -13.9116 13.2026
head 10.3414 -6.04452 4.95973
rclavicle -9.34288e-015 7.95139e-015
rhumerus -43.6652 -25.0749 -64.916
rradius 30.9044
rwrist 21.1988
rhand -28.0502 -0.183355
rfingers 7.12502
rthumb -1.43439 -30.1583
lclavicle -9.34288e-015 7.95139e-015
lhumerus -67.0004 35.882 32.2629
lradius 17.0493
lwrist -19.3227
lhand -12.4435 35.5479
lfingers 7.12502
lthumb 13.6296 1145.08
rfemur -24.9384 -6.36332 13.7055
rtibia 38.5595
rfoot -19.326 -19.1334
rtoes 16.4712
lfemur -6.53462 2.95602 -21.2213
ltibia 23.5628
lfoot -17.5869 9.63023
ltoes -10.6116
892
root -2.72716 17.7864 -3.72826 -175.576 140.751 -181.071
lowerback 5.77613 -1.79667 -9.30551
upperback 1.5682 -2.91871 -1.12204
thorax -1.19972 -1.43939 4.23217
lowerneck -21.1682 -11.5843 -15.8357
upperneck 14.9276 -13.8815 13.2265
head 10.3227 -6.02262 4.9592
rclavicle -2.96189e-014 1.90833e-014
rhumerus -43.2671 -24.9539 -64.3535
rradius 31.7253
rwrist 21.2777
rhand -28.3674 -0.675514
rfingers 7.12502
rthumb -1.74071 -30.6482
lclavicle -2.96189e-014 1.90833e-014
lhumerus -66.4113 36.1151 32.762
lradius 16.9385
lwrist -19.7923
lhand -12.7781 35.8267
lfingers 7.12502
lthumb 13.3071 1145.38
rfemur -24.5165 -6.07755 13.4241
rtibia 38.1648
rfoot -19.7465 -19.1585
rtoes 15.5881
lfemur -6.54798 2.90439 -21.0497
ltibia 23.5313
lfoot -17.5063 9.86895
ltoes -10.8165
893
root -2.75203 17.7893 -3.71581 -175.554 141.019 -181.002
lowerback 5.7047 -1.79855 -9.24815
upperback 1.50582 -2.91522 -1.16375
thorax -1.23081 -1.43447 4.1553
lowerneck -21.2837 -11.5868 -15.8112
upperneck 15.0505 -13.8876 13.2226
head 10.3858 -6.01821 4.95044
rclavicle 2.16675e-014 1.74931e-014
rhumerus -42.9492 -24.8856 -63.6234
rradius 32.6352
rwrist 21.3378
rhand -28.8319 -0.949493
rfingers 7.12502
rthumb -2.1894 -30.918
lclavicle 2.16675e-014 1.74931e-014
lhumerus -65.8107 36.4211 33.2043
lradius 16.7376
lwrist -20.5522
lhand -13.3616 36.5075
lfingers 7.12502
lthumb 12.7446 1146.1
rfemur -24.037 -5.89763 12.9817
rtibia 37.6841
rfoot -19.9203 -19.0001
rtoes 14.5428
lfemur -6.49483 2.84806 -21.048
ltibia 23.5278
lfoot -17.5032 10.0213
ltoes -10.6595
894
root -2.77594 17.7885 -3.70199 -175.5 141.265 -180.821
lowerback 5.66192 -1.79722 -9.28241
upperback 1.45806 -2.91451 -1.19824
thorax -1.25698 -1.43143 4.13779
lowerneck -21.2862 -11.603 -15.8295
upperneck 15.0179 -13.899 13.2162
head 10.377 -6.02523 4.94816
rclavicle 3.39922e-014 -3.18055e-015
rhumerus -42.5447 -24.8338 -62.8031
rradius 33.5667
rwrist 21.397
rhand -28.9033 -1.52953
rfingers 7.12502
rthumb -2.25835 -31.4973
lclavicle 3.39922e-014 -3.18055e-015
lhumerus -65.0409 36.6267 33.994
lradius 16.5767
lwrist -21.198
lhand -13.662 36.6928
lfingers 7.12502
lthumb 12.455 1146.3
rfemur -23.5152 -5.81344 12.4693
rtibia 37.1506
rfoot -19.8366 -18.6341
rtoes 14.0193
lfemur -6.3754 2.75902 -21.1399
ltibia 23.4681
lfoot -17.4727 10.2747
ltoes -10.8157
895
root -2.80468 17.7863 -3.68703 -175.555 141.513 -180.824
lowerback 5.62235 -1.82212 -9.22909
upperback 1.44268 -2.94144 -1.18178
thorax -1.24914 -1.4451 4.12537
lowerneck -21.3458 -11.6139 -15.911
upperneck 14.9048 -13.909 13.3957
head 10.3715 -6.01408 5.02136
rclavicle -3.77691e-015 2.22639e-014
rhumerus -41.9007 -24.6112 -62.152
rradius 34.4191
rwrist 20.7554
rhand -29.6566 -1.61696
rfingers 7.12502
rthumb -2.98586 -31.5758
lclavicle -3.77691e-015 2.22639e-014
lhumerus -63.9271 36.7079 35.2576
lradius 16.4382
lwrist -21.3794
lhand -13.5553 36.2689
lfingers 7.12502
lthumb 12.5578 1145.87
rfemur -23.0117 -5.54886 12.1315
rtibia 36.5547
rfoot -19.8833 -18.2943
rtoes 13.8026
lfemur -6.28893 2.84499 -21.0471
ltibia 23.3942
lfoot -17.3832 10.5027
ltoes -11.1795
896
root -2.83199 17.784 -3.67007 -175.496 141.89 -180.638
lowerback 5.53574 -1.80859 -9.33107
upperback 1.44191 -2.91994 -1.22825
thorax -1.20158 -1.43617 4.12874
lowerneck -21.5524 -11.6443 -15.9525
upperneck 14.9219 -13.9469 13.5606
head 10.4387 -6.00709 5.0744
rclavicle 2.24627e-014 3.65764e-014
rhumerus -41.2208 -24.6672 -61.4126
rradius 35.2399
rwrist 19.9346
rhand -31.0263 -0.781211
rfingers 7.12502
rthumb -4.30851 -30.7174
lclavicle 2.24627e-014 3.65764e-014
lhumerus -62.1274 36.1585 37.6821
lradius 16.5703
lwrist -20.4762
lhand -13.4285 36.2953
lfingers 7.12502
lthumb 12.6801 1145.89
rfemur -22.5073 -5.14599 11.6114
rtibia 35.8816
rfoot -19.9059 -17.9485
rtoes 13.0495
lfemur -6.17214 2.91188 -21.1334
ltibia 23.3689
lfoot -17.4035 10.7784
ltoes -11.0615
897
root -2.86235 17.7847 -3.65509 -175.558 142.234 -180.603
lowerback 5.55149 -1.78678 -9.34619
upperback 1.40742 -2.89632 -1.2224
thorax -1.24867 -1.42144 4.14368
lowerneck -21.7032 -11.6745 -15.8774
upperneck 14.9297 -13.9751 13.4993
head 10.4607 -6.01499 5.03003
rclavicle -3.97569e-016 4.77083e-015
rhumerus -40.516 -25.0177 -60.3945
rradius 36.0611
rwrist 19.5606
rhand -31.5308 -0.166141
rfingers 7.12502
rthumb -4.79566 -30.0919
lclavicle -3.97569e-016 4.77083e-015
lhumerus -60.3993 35.4998 40.0544
lradius 16.7306
lwrist -19.6627
lhand -13.3931 36.5731
lfingers 7.12502
lthumb 12.7142 1146.17
rfemur -21.9448 -4.62739 11.2519
rtibia 35.1159
rfoot -19.915 -17.668
rtoes 12.3678
lfemur -6.06628 2.88777 -21.0844
ltibia 23.4026
lfoot -17.415 11.0748
ltoes -11.0476
898
root -2.89563 17.7825 -3.63798 -175.721 142.534 -180.745
lowerback 5.58075 -1.75409 -9.22392
upperback 1.3746 -2.85192 -1.17765
thorax -1.30955 -1.39638 4.12234
lowerneck -21.8002 -11.7316 -15.7578
upperneck 14.8518 -14.041 13.3841
head 10.4398 -6.04634 4.95207
rclavicle -3.65764e-014 1.59028e-014
rhumerus -39.8535 -25.2574 -59.3458
rradius 37.0557
rwrist 19.55
rhand -31.5775 -0.32994
rfingers 7.12502
rthumb -4.84079 -30.2546
lclavicle -3.65764e-014 1.59028e-014
lhumerus -59.0725 35.4293 41.4174
lradius 16.6823
lwrist -20.0322
lhand -13.0836 36.2135
lfingers 7.12502
lthumb 13.0126 1145.79
rfemur -21.3908 -4.05662 11.0892
rtibia 34.2906
rfoot -20.0003 -17.3351
rtoes 12.2131
lfemur -5.98854 2.82748 -20.863
ltibia 23.4251
lfoot -17.3534 11.3821
ltoes -11.1076
899
root -2.92105 17.7777 -3.61309 -175.828 142.851 -180.77
lowerback 5.50604 -1.73194 -9.14207
upperback 1.32493 -2.81384 -1.19359
thorax -1.32993 -1.37546 4.05655
lowerneck -21.6936 -11.749 -15.726
upperneck 14.7045 -14.0989 13.4802
head 10.3843 -6.06697 4.97234
rclavicle -3.69739e-014 -4.45278e-014
rhumerus -39.3138 -25.1865 -58.3757
rradius 38.1678
rwrist 19.5832
rhand -31.7556 -0.934726
rfingers 7.12502
rthumb -5.01272 -30.8554
lclavicle -3.69739e-014 -4.45278e-014
lhumerus -57.5127 34.9986 43.1673
lradius 16.7452
lwrist -20.0051
lhand -12.7912 35.7349
lfingers 7.12502
lthumb 13.2945 1145.29
rfemur -20.7797 -3.67875 10.8369
rtibia 33.4145
rfoot -19.9086 -16.8873
rtoes 11.5718
lfemur -5.85436 2.86086 -20.7439
ltibia 23.4762
lfoot -17.3625 11.6389
ltoes -11.331
